<svg id="Layer_1" data-name="Layer 1" xmlns="http://www.w3.org/2000/svg" viewBox="0 0 1000 1000">
  <title>fuckpicrights-favicon</title>
  <g id="jxBMmq">
    <g>
      <path d="M44.9414,500.34827C44.51516,252.11351,246.07659,50.21366,495.08519,49.44868c248.51088-.76345,450.60041,200.93077,451.229,450.34624.62621,248.48937-201.64387,450.79991-450.66856,450.75855C246.91507,950.51219,45.36864,749.18889,44.9414,500.34827ZM495.60634,98.5323C273.92059,98.80093,94.3948,278.3528,94.17522,500.02171c-.21939,221.47218,180.54087,402.04838,401.967,401.55756,221.73587-.49139,401.32595-180.42355,400.98828-401.752C896.79214,278.07734,716.87629,98.26413,495.60634,98.5323Z" style="fill: #152414"/>
      <path d="M.13748,179.24366C.13721,152.65887.27375,126.07274.01562,99.49045c-.0484-4.985,1.08743-6.41606,6.26494-6.39333q73.33208.32194,146.666.0205c4.73529-.01651,6.41233,1.27517,5.96055,6.01637-.57313,6.0147,2.42749,13.86971-1.13639,17.636-3.61279,3.81793-11.524,1.16571-17.53715,1.18391-36.49752.11049-72.9963.1693-109.49252-.07533-5.08-.034-6.28008,1.22023-6.25566,6.26622.217,44.83263.056,89.667.23046,134.5.01841,4.72955-.64166,7.06785-6.07732,6.41867a64.2739,64.2739,0,0,0-13.49625-.01439c-4.447.41486-5.11562-1.42333-5.09119-5.37564C.21687,232.86435.13775,206.05376.13748,179.24366Z" style="fill: #192818"/>
      <path d="M914.4567,99.64363c26.35825.00034,52.71758.11689,79.07393-.107,4.7497-.04035,6.49557.71444,6.46907,6.08711q-.36309,73.66631-.02377,147.335c.01965,4.9446-1.54468,6.19359-6.11019,5.78829a68.09474,68.09474,0,0,0-12.82511.003c-5.00679.508-5.83461-1.64158-5.81677-6.127.15975-40.1-.12632-80.20328.29746-120.29948.076-7.19383-2.13415-8.31-8.62436-8.26837-44.15407.28313-88.31087.07863-132.466.25016-4.722.01833-7.09206-.63037-6.433-6.0891a65.55994,65.55994,0,0,0,.02138-13.49627c-.38118-4.34533,1.29923-5.19274,5.33545-5.16686C860.38787,99.72654,887.42253,99.64329,914.4567,99.64363Z" style="fill: #152414"/>
      <path d="M999.8577,838.47958c.00025,26.82009-.097,53.641.09841,80.45961.0317,4.34862-1.027,5.64356-5.53475,5.628q-73.69808-.25362-147.3973-.00661c-4.61595.015-6.524-1.04907-6.03217-5.91435.60607-5.99386-2.42624-13.84348,1.15352-17.58134,3.62466-3.78491,11.51185-1.1403,17.517-1.15846,36.06033-.10923,72.123-.23687,108.18016.11459,6.4623.063,7.63456-1.97077,7.60294-7.90031-.2372-44.39845-.04095-88.79913-.24925-133.19783-.02328-4.97211,1.03463-6.88574,6.2185-6.26754a49.1854,49.1854,0,0,0,12.14574-.007c5.68542-.75071,6.44257,1.79227,6.40121,6.72409C999.74072,785.73987,999.85754,812.11026,999.8577,838.47958Z" style="fill: #152414"/>
      <path d="M86.19789,917.88953c-26.576.00041-53.1528-.106-79.72717.10089-4.65141.03624-6.49943-.55438-6.47038-6.01169q.39018-73.30712.03219-146.617c-.0202-4.97054,1.05-6.91233,6.22554-6.25359,5.92934.75483,13.92687-2.517,17.33681,1.3543,2.94734,3.34611.97749,11.12464.98342,16.944.03717,36.48568.118,72.97193-.09489,109.45637-.02964,5.08191.9891,6.7406,6.48415,6.70956,44.81739-.25346,89.63741-.03732,134.45493-.28012,5.45126-.02948,7.04,1.53262,6.51642,6.72442a65.7376,65.7376,0,0,0,.00181,12.82033c.42312,4.39518-1.36847,5.15985-5.33966,5.13607C139.8008,917.81209,112.99912,917.889,86.19789,917.88953Z" style="fill: #142313"/>
      <path d="M517.0857,847.61629c-12.26706,1.6752-23.25185,1.40392-34.194.68177-56.1512-3.70565-108.3258-20.85768-157.83927-46.95216-2.83724-1.49522-4.3898-3.06318-4.30761-6.65128q2.03472-88.82046,3.8259-177.64664a14.0415,14.0415,0,0,1,.87787-2.70921C389.39587,692.18105,452.87146,769.4491,517.0857,847.61629Z" style="fill: #40b03c"/>
      <path d="M625.25546,332.22487,364.74027,177.96454c11.70916-6.12276,23.30452-9.97373,34.99639-13.232,53.10177-14.79823,106.97151-16.50606,161.34547-8.798,3.29154.46661,5.00748,1.44689,6.151,4.816q28.513,84.00377,57.30678,167.91224A35.443,35.443,0,0,1,625.25546,332.22487Z" style="fill: #40b03c"/>
      <path d="M289.17886,777.443c-26.17237-18.84614-47.27682-40.87612-65.46587-65.70587a418.20029,418.20029,0,0,1-51.39493-92.30137c-1.26771-3.17517-2.35262-5.72046.61674-9.09745q58.66242-66.71415,116.998-133.7156a26.15118,26.15118,0,0,1,2.3958-1.96461C291.27759,575.69307,290.23512,675.90465,289.17886,777.443Z" style="fill: #40b03c"/>
      <path d="M357.09928,347.0411l-197.20859,229.579c-3.84777-12.25145-5.60415-23.8793-6.79408-35.56485-5.58484-54.84459,2.02176-108.15986,18.84263-160.397,1.19648-3.71569,2.55881-5.96566,7.03146-6.64568,57.38152-8.72431,114.72424-17.70381,172.08043-26.59522C352.54083,347.18648,354.07155,347.22048,357.09928,347.0411Z" style="fill: #40b03c"/>
      <path d="M582.36515,691.42073c87.87732-49.46328,175.01727-98.51149,263.02094-148.04589.88924,6.95336-.696,12.79618-1.76114,18.49815-11.32725,60.63329-39.15514,113.51665-76.44617,161.9304-2.18806,2.84069-4.39635,3.89178-7.99319,3.18Q672.832,709.89465,586.44827,692.95876A32.13367,32.13367,0,0,1,582.36515,691.42073Z" style="fill: #40b03c"/>
      <path d="M189.48253,340.04326a274.8474,274.8474,0,0,1,40.14064-60.99187c27.64413-32.23,59.76533-59.27321,95.74938-81.79058,3.2569-2.038,5.72048-2.27547,9.12507-.20659q74.47113,45.25431,149.07126,90.29643c1.2277.74363,3.03508,1.03046,3.30257,3.6464Z" style="fill: #40b03c"/>
      <path d="M440.1294,699.54312c99.0664,18.61662,197.3603,37.08811,296.75331,55.76611-9.81939,10.3978-20.1495,18.51871-30.88537,26.10282-44.04556,31.11522-93.20163,50.21374-145.60524,61.62453-3.04857.66378-5.37937.65379-7.67422-2.20754q-55.7975-69.57128-111.79117-138.98529A11.65839,11.65839,0,0,1,440.1294,699.54312Z" style="fill: #40b03c"/>
      <path d="M686.85531,592.69385c35.37872-93.96674,70.66985-187.70079,106.26372-282.239a204.17481,204.17481,0,0,1,19.55276,33.36165c19.8721,41.47149,30.21,85.48629,34.56288,131.09064.81519,8.54059,1.12107,17.07252,1.40449,25.62616.08892,2.6818-.3588,4.57232-3.02141,6.03584q-78.385,43.08473-156.693,86.30948C688.63321,593.03923,688.13373,592.82251,686.85531,592.69385Z" style="fill: #40b03c"/>
      <path d="M703.522,451.82068c-33.70641-95.92976-66.87425-190.32649-100.38264-285.69263a254.71435,254.71435,0,0,1,52.634,20.94515c42.5692,22.33427,79.06247,52.394,111.27126,87.88158,2.52407,2.781,3.3566,5.07876,1.85757,8.93079q-31.55538,81.08349-62.76211,162.30257C705.60749,447.56745,704.89707,448.87812,703.522,451.82068Z" style="fill: #40b03c"/>
    </g>
  </g>
  <g>
    <path d="M305.24718,494.81749c0-27.34461,25.00289-49.53322,55.79182-49.53322h1.0291c30.83095,0,65.95679,22.17812,65.95679,49.53322L400.8483,231.45236c0-25.67495,32.42709-46.50893,72.40442-46.50893h.67205c39.97733,0,72.36242,20.82348,72.36242,46.50893L535.03013,489.357c0-27.34461,24.95037-49.53321,55.76033-49.53321h1.05009c30.80992,0,55.77083,22.17811,55.77083,49.53321V518.0982C653.02988,498.57685,673.0658,484.033,695.79,490.113c46.803,12.5382,38.17112,50.4048,42.67606,91.37972,5.513,49.98475,18.07223,83.29394,13.36776,100.90414-10.291,38.49668-38.75922,33.88674-53.79664,44.41923-14.95343,10.48-18.84928,27.1976-30.04337,37.289-23.40673,21.107-65.54726,17.06412-102.88882,26.12648-32.89963,8.00177-61.94539,27.23962-86.9063,24.50933-28.22669-3.1188-36.218-27.78565-67.39543-42.49756-31.713-14.93244-74.67262-7.16168-86.91679-32.66862-24.38334-50.85634-18.63928-244.75736-18.63928-244.75736" style="fill: #ff000c"/>
    <g>
      <path d="M305.24718,494.81749c0-14.78542,7.44521-27.92217,19.03832-36.995-19.62637,25.13939-6.78365,203.33091,17.57867,254.22927,12.22316,25.51744,55.21426,17.72569,86.89579,32.66862,31.19848,14.70142,39.16873,39.39975,67.39542,42.49756,24.96087,2.73025,54.24818-14.22885,87.13732-22.23062,37.33106-9.06236,63.72009-6.30059,87.14781-27.39713,11.194-10.09145,17.23213-25.927,40.36587-33.12015,17.02211-5.31352,28.55224-10.02848,41.26894-23.43822-.105.47252-.105.9241-.24151,1.41761-10.291,38.49668-38.75922,33.88675-53.79664,44.41924-14.95343,10.48-18.84928,27.19759-30.04337,37.289-23.40673,21.107-65.54726,17.06413-102.88882,26.12648-32.89963,8.00178-61.94539,27.23962-86.9063,24.50934-28.22669-3.11881-36.218-27.78565-67.39543-42.49757-31.713-14.93243-74.67262-7.16167-86.91679-32.66861C299.50312,688.74994,305.24718,494.849,305.24718,494.849" style="fill: #9c0008"/>
      <path d="M401.65688,219.44972c-9.88144,40.15583,26.35752,403.51149,26.35752,403.51149,0,26.10549,13.96633,15.426,13.96633-10.72152,0,0-37.94013-340.999-27.26061-392.10742,4.45242-21.26453,19.36385-27.59663,43.62115-34.14926.0105,0-49.00817,2.39423-56.68441,33.5087" style="fill: #940007"/>
      <path d="M552.46179,607.82928v-136.408a44.09345,44.09345,0,0,1,4.778-20.666C543.914,459.79666,535.01963,474.078,535.01963,490.113V626.51056c0,27.35511,17.44216,8.65284,17.44216-18.68128" style="fill: #940007"/>
      <path d="M661.8087,621.54359V512.55367a40.17946,40.17946,0,0,1,4.30541-18.67078c-12.03415,8.16978-20.09893,21.107-20.09893,35.55641V638.42918c0,24.72985,15.79352,7.83373,15.79352-16.88563" style="fill: #940007"/>
      <path d="M545.2476,728.59081c-1.93217-9.06236-1.51216-16.71759-2.14219-24.11032a142.98741,142.98741,0,0,0-3.21331-23.1232,21.0368,21.0368,0,0,1,9.88147,9.33539,30.63982,30.63982,0,0,1,3.80135,13.15774,34.50186,34.50186,0,0,1-8.32728,24.74035" style="fill: #b90009"/>
      <path d="M436.73023,661.48941c.483,11.25706-1.27063,21.107-1.90068,30.86244a238.40046,238.40046,0,0,0-.66156,30.2324c-8.18028-7.99128-10.65851-20.19343-9.79744-31.104,1.08161-11.05757,5.051-21.53754,12.35968-29.99085" style="fill: #b90009"/>
      <path d="M665.28455,704.43851c-2.40473-8.95736-2.38374-16.63358-3.40234-23.99479a146.83311,146.83311,0,0,0-4.43143-22.9552,21.05017,21.05017,0,0,1,10.354,8.82085,30.91368,30.91368,0,0,1,4.49444,12.93722,34.66414,34.66414,0,0,1-7.01466,25.19188" style="fill: #b90009"/>
      <path d="M525.23267,276.95321c7.93876-55.81283-18.00922-58.09155-50.39431-58.09155-32.4061,0-58.35406,2.27872-50.41532,58.09155,2.99279,20.834,24.77186,27.97466,50.41532,27.97466s47.44354-7.13018,50.39431-27.97466" style="fill: #9e0800"/>
    </g>
    <path d="M526.48228,267.3973c8.36931-58.83712-18.32424-61.25235-51.66493-61.25235-33.33018,0-59.99222,2.41523-51.62293,61.25235,3.11881,21.86308,25.41242,29.31879,51.62293,29.31879,26.25248,0,48.55662-7.45571,51.66493-29.31879" style="fill: #6e0000"/>
    <path d="M324.107,726.92114c-37.6986-44.38774-87.43135-67.15391-75.04016-99.82253,10.669-31.482,32.64761-30.831,61.28384-66.36633L324.107,726.92114" style="fill: #a10008"/>
  </g>
</svg>
