<svg id="Layer_1" data-name="Layer 1" xmlns="http://www.w3.org/2000/svg" viewBox="0 0 1000 1000">
  <title>fuckpicrights-logo</title>
  <g id="jxBMmq">
    <g>
      <path d="M58.20452,434.46352C57.7957,196.37955,251.1149,2.73577,489.94108,2.00207,728.28987,1.26984,922.11558,194.7164,922.71847,433.9328,923.31908,672.261,729.3202,866.29865,490.47861,866.259,251.91911,866.21938,58.61428,673.12858,58.20452,434.46352Zm432.2364-385.385c-212.6206.25765-384.80525,172.46731-385.01585,385.07176-.21041,212.41575,173.15821,385.60785,385.52978,385.13711,212.66867-.4713,384.915-173.04569,384.59111-385.32359C875.22147,221.28167,702.66271,48.82136,490.44092,49.07856Z" style="fill: #152414"/>
      <path d="M15.23271,126.48949c-.00025-25.4977.1307-50.99667-.11687-76.49195-.04643-4.78112,1.043-6.15369,6.00875-6.13189q70.33338.30876,140.6686.01965c4.54166-.01583,6.15012,1.223,5.71681,5.77035-.54969,5.76875,2.32823,13.30255-1.08992,16.91479-3.46506,3.66181-11.0528,1.118-16.82,1.1355-35.00507.106-70.01135.16238-105.01516-.07224-4.87225-.03266-6.02328,1.17032-5.99986,6.01.20814,42.99934.05371,86.00038.221,129.00006.01765,4.53616-.61543,6.77884-5.82881,6.1562a61.646,61.646,0,0,0-12.94436-.0138c-4.26517.3979-4.90644-1.36513-4.883-5.15582C15.30886,177.91752,15.233,152.20327,15.23271,126.48949Z" style="fill: #192818"/>
      <path d="M892.16368,50.14446c25.28042.00032,50.56186.1121,75.84046-.10262,4.55547-.0387,6.23.68523,6.20454,5.83821q-.34825,70.65395-.02281,141.31022c.01885,4.7424-1.48151,5.94032-5.86033,5.55159a65.31124,65.31124,0,0,0-12.30067.00291c-4.80205.48721-5.596-1.57445-5.57891-5.87648.15322-38.46026-.12115-76.92362.2853-115.3802.07292-6.89966-2.04688-7.97019-8.27169-7.93026-42.34853.27154-84.69968.07541-127.04924.23992-4.52887.01759-6.80205-.60459-6.16993-5.8401a62.87907,62.87907,0,0,0,.0205-12.94438c-.36558-4.16764,1.24611-4.9804,5.11728-4.95558C840.30584,50.224,866.235,50.14413,892.16368,50.14446Z" style="fill: #152414"/>
      <path d="M974.07248,758.768c.00024,25.72336-.093,51.44752.09439,77.16946.0304,4.1708-.985,5.41278-5.30843,5.3979q-70.68441-.24326-141.36994-.00634c-4.4272.01441-6.25727-1.00617-5.7855-5.6725.58128-5.74876-2.327-13.2774,1.10634-16.8624,3.47645-3.63014,11.04111-1.09368,16.80072-1.1111,34.58575-.10476,69.17372-.22717,103.75647.10991,6.198.06042,7.32236-1.89018,7.292-7.57725-.2275-42.58292-.03928-85.168-.23906-127.75112-.02233-4.76879.99232-6.60417,5.96422-6.01125a47.17365,47.17365,0,0,0,11.64907-.00673c5.45294-.72,6.17912,1.719,6.13945,6.44913C973.96028,708.18492,974.07232,733.477,974.07248,758.768Z" style="fill: #152414"/>
      <path d="M97.774,834.93073c-25.48924.00039-50.97928-.10167-76.467.09676-4.46119.03476-6.23365-.53172-6.20579-5.76586q.37423-70.30946.03087-140.62159c-.01937-4.76729,1.00708-6.62967,5.971-5.99787,5.68687.724,13.35736-2.414,16.62787,1.29891,2.82681,3.20929.93752,10.66975.94321,16.25111.03565,34.99371.11312,69.988-.091,104.98049-.02843,4.8741.94866,6.465,6.219,6.43519,42.98473-.24309,85.972-.03579,128.95682-.26867,5.22835-.02826,6.75216,1.47,6.25,6.44945a63.04854,63.04854,0,0,0,.00174,12.29608c.40581,4.21546-1.31252,4.94886-5.12132,4.926C149.18493,834.85645,123.47923,834.93025,97.774,834.93073Z" style="fill: #142313"/>
      <path d="M511.04194,767.53109c-11.76544,1.6067-22.301,1.34651-32.79575.6539-53.85508-3.55413-103.89615-20.00478-151.38492-45.0322-2.72122-1.43409-4.2103-2.93793-4.13147-6.3793q1.95153-85.18844,3.66946-170.38233a13.46723,13.46723,0,0,1,.842-2.59843C388.57359,618.4519,449.45354,692.5603,511.04194,767.53109Z" style="fill: #40b03c"/>
      <path d="M614.78844,273.215c-83.52987-49.461-166.26431-98.451-249.86224-147.95233,11.23036-5.87239,22.35156-9.56588,33.56533-12.69092,50.93034-14.1931,102.59723-15.83109,154.74774-8.4382,3.15695.44753,4.80272,1.38773,5.89949,4.61909q27.34708,80.56869,54.9634,161.046A33.99929,33.99929,0,0,1,614.78844,273.215Z" style="fill: #40b03c"/>
      <path d="M292.45465,700.22735c-25.10214-18.07548-45.34359-39.20461-62.78886-63.019a401.09952,401.09952,0,0,1-49.29329-88.527c-1.21587-3.04534-2.25641-5.48655.59152-8.72545q56.26361-63.98607,112.21376-128.24771a25.08472,25.08472,0,0,1,2.29783-1.88427C294.46756,506.72732,293.46771,602.84106,292.45465,700.22735Z" style="fill: #40b03c"/>
      <path d="M357.59767,287.42537c-63.34537,73.74307-125.8942,146.55886-189.14435,220.1911-3.69043-11.75047-5.375-22.90283-6.51626-34.11054-5.35647-52.60189,1.93909-103.737,18.07211-153.838,1.14756-3.56375,2.45418-5.72172,6.74393-6.37393,55.03509-8.36755,110.033-16.97986,165.04374-25.50769C353.22562,287.56481,354.69375,287.59741,357.59767,287.42537Z" style="fill: #40b03c"/>
      <path d="M573.652,617.72266c84.28384-47.44063,167.86047-94.48316,252.26551-141.992.85288,6.669-.66751,12.27292-1.68913,17.74173-10.86406,58.15388-37.554,108.87474-73.32014,155.30875-2.09859,2.72453-4.21657,3.73265-7.66634,3.04993q-82.82244-16.38991-165.67375-32.63326A30.81851,30.81851,0,0,1,573.652,617.72266Z" style="fill: #40b03c"/>
      <path d="M196.83509,280.71368a263.60813,263.60813,0,0,1,38.49921-58.49779,398.31589,398.31589,0,0,1,91.834-78.446c3.12373-1.95469,5.48657-2.18243,8.75193-.19814q71.42588,43.40376,142.97546,86.604c1.17749.71322,2.911.98832,3.16752,3.49729Z" style="fill: #40b03c"/>
      <path d="M437.23253,625.51292c95.01539,17.85535,189.28986,35.5715,284.6185,53.48572-9.41786,9.97262-19.32554,17.76145-29.62241,25.03543-42.24444,29.84285-89.39043,48.1604-139.65116,59.10459-2.92391.63663-5.1594.62705-7.36041-2.11727Q491.70124,694.295,437.99724,627.71947A11.18182,11.18182,0,0,1,437.23253,625.51292Z" style="fill: #40b03c"/>
      <path d="M673.86935,523.03291c33.932-90.12426,67.78-180.02535,101.9184-270.69771A195.82628,195.82628,0,0,1,794.541,284.33262c19.05949,39.77564,28.97469,81.99059,33.14953,125.73009.78186,8.19136,1.07523,16.3744,1.34706,24.57826.08528,2.57214-.34413,4.38535-2.89785,5.789Q750.96,481.75292,675.85415,523.21012C675.57455,523.36417,675.0955,523.15632,673.86935,523.03291Z" style="fill: #40b03c"/>
      <path d="M689.85448,387.92032c-32.32809-92.007-64.13963-182.54369-96.2778-274.01012a244.29847,244.29847,0,0,1,50.48172,20.08866c40.82846,21.421,75.82945,50.25155,106.72116,84.28794,2.42086,2.66723,3.21934,4.87107,1.78162,8.56559q-30.265,77.76783-60.19565,155.66571C691.85472,383.841,691.17335,385.09808,689.85448,387.92032Z" style="fill: #40b03c"/>
    </g>
  </g>
  <g>
    <path d="M307.8659,420.06555c0-26.22644,23.98048-47.50771,53.51039-47.50771h.987c29.57022,0,63.2597,21.2712,63.2597,47.50771L399.55771,167.46992c0-24.62506,31.10109-44.6071,69.44366-44.6071h.64458c38.34257,0,69.40337,19.972,69.40337,44.6071L528.25259,414.82831c0-26.22644,23.9301-47.50771,53.48019-47.50771h1.00714c29.55,0,53.49025,21.27121,53.49025,47.50771v27.56595c5.19694-18.72308,24.41355-32.67225,46.2085-26.84081,44.88911,12.02549,36.61024,48.34366,40.931,87.643,5.2876,47.94078,17.33322,79.88789,12.82113,96.778-9.87016,36.92247-37.17428,32.501-51.5968,42.60284-14.34195,10.05147-18.0785,26.08544-28.81484,35.76423-22.44959,20.24389-62.86691,16.36634-98.6815,25.05812-31.5543,7.67456-59.41233,26.12574-83.35254,23.5071-27.07244-2.99127-34.73693-26.64944-64.63949-40.75976-30.41623-14.32182-71.61912-6.86882-83.36261-31.33273-23.38625-48.77673-17.87708-234.74877-17.87708-234.74877" style="fill: #ff000c"/>
    <g>
      <path d="M307.8659,420.06555c0-14.18082,7.14076-26.78038,18.2598-35.48224-18.8238,24.11139-6.50625,195.01632,16.85985,243.83335,11.72334,24.474,52.95645,17.00085,83.34246,31.33273,29.92272,14.10025,37.567,37.78862,64.63949,40.75976,23.94018,2.6186,52.02987-13.647,83.57411-21.32157,35.80453-8.69178,61.11445-6.043,83.58417-26.27681C668.86209,643.232,674.65326,628.044,696.841,621.145c16.326-5.09623,27.38468-9.61839,39.58137-22.47978-.1007.4532-.1007.88631-.23163,1.35964-9.87016,36.92248-37.17428,32.50106-51.5968,42.60285-14.34195,10.05147-18.0785,26.08544-28.81484,35.76423-22.44959,20.24389-62.86691,16.36634-98.6815,25.05812-31.5543,7.67456-59.41233,26.12573-83.35254,23.5071-27.07244-2.99127-34.73693-26.64944-64.63949-40.75976-30.41623-14.32182-71.61912-6.86882-83.36261-31.33274-23.38625-48.79689-17.87708-234.7689-17.87708-234.7689" style="fill: #9c0008"/>
      <path d="M400.33322,155.95809c-9.47737,38.51377,25.27971,387.01113,25.27971,387.01113,0,25.038,13.39522,14.7952,13.39522-10.28309,0,0-36.38868-327.05494-26.14587-376.0734,4.27036-20.395,18.572-26.46816,41.83741-32.75284.01006,0-47.00414,2.29633-54.36649,32.13847" style="fill: #940007"/>
      <path d="M544.97143,528.45607V397.626a42.29034,42.29034,0,0,1,4.5826-19.8209c-12.78087,8.67164-21.31151,22.369-21.31151,37.74833v130.82c0,26.2365,16.72891,8.299,16.72891-17.91737" style="fill: #940007"/>
      <path d="M649.847,541.60958V437.07646a38.53637,38.53637,0,0,1,4.12935-17.90729c-11.54205,7.8357-19.27705,20.24389-19.27705,34.10244V557.80468c0,23.7186,15.1477,7.5134,15.1477-16.19514" style="fill: #940007"/>
      <path d="M538.05225,644.27943c-1.85316-8.69178-1.45032-16.034-2.0546-23.1244a137.14069,137.14069,0,0,0-3.0819-22.17765,20.17656,20.17656,0,0,1,9.47739,8.95365,29.38676,29.38676,0,0,1,3.64591,12.61969,33.091,33.091,0,0,1-7.98677,23.72867" style="fill: #b90009"/>
      <path d="M433.97236,579.92194c.46328,10.79673-1.21867,20.24389-1.823,29.60041a228.65365,228.65365,0,0,0-.63451,28.99614c-7.84577-7.6645-10.22266-19.36768-9.3968-29.83209a51.05279,51.05279,0,0,1,11.85427-28.76446" style="fill: #b90009"/>
      <path d="M653.18066,621.11476c-2.3064-8.59107-2.28627-15.9534-3.26321-23.01359a140.82883,140.82883,0,0,0-4.25023-22.01652,20.18938,20.18938,0,0,1,9.9306,8.46014,29.64963,29.64963,0,0,1,4.31066,12.4082,33.24669,33.24669,0,0,1-6.72782,24.16174" style="fill: #b90009"/>
      <path d="M518.85576,211.11014c7.61413-53.53053-17.27279-55.71607-48.33359-55.71607-31.081,0-55.96785,2.18554-48.35373,55.71607,2.8704,19.982,23.75888,26.83073,48.35373,26.83073s45.50349-6.83861,48.33359-26.83073" style="fill: #9e0800"/>
    </g>
    <path d="M520.05428,201.945c8.02707-56.43115-17.57493-58.74762-49.55226-58.74762-31.96724,0-57.539,2.31647-49.512,58.74762,2.99128,20.96906,24.37327,28.1199,49.512,28.1199,25.179,0,46.57105-7.15084,49.55226-28.1199" style="fill: #6e0000"/>
    <path d="M325.95449,642.678c-36.157-42.57265-83.85611-64.40786-71.97162-95.7406,10.23274-30.19465,31.31259-29.57021,58.77783-63.65248L325.95448,642.678" style="fill: #a10008"/>
  </g>
  
</svg>
